<svg width="85" height="85" viewBox="0 0 85 85" fill="none" xmlns="http://www.w3.org/2000/svg">
<g id="enigmbox-svgrepo-com 1">
<path id="Vector" d="M41.4536 71.7993H43.5464L74.9385 61.3353L77.0313 23.6647L43.5464 32.036H41.4536L7.96875 23.6647L10.0615 61.3353L41.4536 71.7993Z" stroke="white" stroke-width="3" stroke-linecap="round" stroke-linejoin="round"/>
<path id="Vector_2" d="M7.96875 23.6647L41.4536 13.2007H43.5464L77.0313 23.6647" stroke="white" stroke-width="3" stroke-linecap="round" stroke-linejoin="round"/>
<path id="Vector_3" d="M53.4719 54.8214C55.5909 56.3348 58.2242 56.9444 60.7926 56.5163C63.361 56.0882 65.6542 54.6574 67.1677 52.5387" stroke="white" stroke-width="3" stroke-linecap="round" stroke-linejoin="round"/>
<path id="Vector_4" d="M53.4719 38.8422V43.4075" stroke="white" stroke-width="3" stroke-linecap="round" stroke-linejoin="round"/>
<path id="Vector_5" d="M67.1677 41.1249V36.5594" stroke="white" stroke-width="3" stroke-linecap="round" stroke-linejoin="round"/>
<path id="Vector_6" d="M25.0111 52.1995C24.8079 51.3652 24.9024 50.4861 25.2781 49.714C25.5041 49.2682 25.8195 48.8737 26.2046 48.5552C26.5785 48.226 26.9875 47.9391 27.3711 47.6212C28.4091 46.7696 29.2338 45.6872 29.7794 44.4603C30.3226 43.2303 30.5244 41.8766 30.3638 40.5416C30.1979 39.2053 29.6284 37.9512 28.7314 36.9468C27.8275 35.9456 26.6097 35.2819 25.2783 35.0648C23.8982 34.8529 22.4888 35.1649 21.327 35.9394C20.1653 36.7139 19.3352 37.8949 19 39.2503" stroke="white" stroke-width="3" stroke-linecap="round" stroke-linejoin="round"/>
<path id="Vector_7" d="M25 61C26.1046 61 27 60.1046 27 59C27 57.8954 26.1046 57 25 57C23.8954 57 23 57.8954 23 59C23 60.1046 23.8954 61 25 61Z" fill="white"/>
</g>
</svg>
